<svg width="85" height="34" viewBox="0 0 85 34" fill="none" xmlns="http://www.w3.org/2000/svg">
<path d="M84.4024 14.3516L83.8419 17.3855H80.0681L80.6278 14.3516H84.4024ZM77.5503 31.0393L79.7259 19.2409H83.4997L81.3241 31.0393H77.5503ZM68.0352 31.0393L66.2001 19.2409H70.2482L71.0736 26.6775H71.1492L74.7378 19.2409H78.4963L72.3108 31.0393H68.0352ZM65.0868 19.0994L65.1182 19.1037L65.1395 19.1096L65.1352 19.136L64.5527 22.3371L64.5476 22.3763L64.5145 22.3643C64.1841 22.2527 63.8462 22.1803 63.5141 22.1547C63.447 22.1504 63.3817 22.147 63.3171 22.1453C63.2526 22.1428 63.1872 22.1436 63.1227 22.147H63.1099C62.0272 22.1888 61.0107 22.7393 60.3704 23.8728C60.2473 24.0927 60.1361 24.3364 60.041 24.604C59.9467 24.8708 59.8686 25.1605 59.81 25.475L59.8074 25.4929L58.785 31.0393H55.0104L57.1852 19.2409H60.6294L60.3857 20.5618C60.7976 20.0812 61.2273 19.7002 61.7725 19.4318C62.3227 19.1642 62.9893 19.0057 63.8776 18.969C64.303 18.952 64.7319 19.0321 65.0868 19.0994ZM30.3645 31.0393L33.2764 15.2524H39.9909H39.99C40.9921 15.2524 41.837 15.4279 42.4824 15.814C43.2076 16.2435 43.7077 16.9833 43.892 17.9344C44.0364 18.6801 43.9829 19.5034 43.8334 20.3138C43.5863 21.6587 42.9673 22.9967 41.9525 23.9563C41.8064 24.0952 41.6544 24.2231 41.499 24.3415H41.4965C41.088 24.656 40.6362 24.9032 40.1573 25.0838C40.063 25.1179 39.9705 25.1512 39.8737 25.1819C39.2903 25.3676 38.6653 25.4605 38.0208 25.4605H35.2923L34.264 31.0393H30.3645ZM38.5337 18.3682H36.6001L35.8817 22.2638H37.8161C38.3333 22.2638 38.836 22.0942 39.2402 21.7644C39.6435 21.4354 39.9484 20.9428 40.0681 20.2942V20.2934C40.1896 19.6355 40.0656 19.1557 39.7828 18.8386C39.4975 18.5224 39.0525 18.3682 38.5345 18.3682H38.5337ZM52.9443 29.6178C52.8891 30.095 52.8577 30.568 52.8552 31.0393H49.2181C49.2232 30.9524 49.2283 30.8603 49.2317 30.7734C49.2393 30.6319 49.2495 30.4555 49.2572 30.2817H49.2478C48.6678 30.6371 47.6836 30.9993 46.679 31.1919C46.2409 31.2745 45.8035 31.3274 45.3747 31.3308C44.2122 31.3427 43.0199 31.0095 42.6047 29.8104C42.5325 29.6101 42.4866 29.3834 42.4645 29.1328L42.462 29.1149V29.1141C42.3975 28.2994 42.5741 27.3551 43.0072 26.5608C43.1796 26.2437 43.3876 25.9599 43.633 25.7111L43.6339 25.7094C43.937 25.4068 44.2843 25.1554 44.6682 24.9415C46.2001 24.0867 47.8467 23.9563 49.4168 23.4995C49.8372 23.3768 50.4324 23.1254 50.5114 22.5442C50.6464 21.5428 49.1315 21.6118 48.5804 21.6374C47.9791 21.6604 47.1113 21.7848 46.246 22.0328C46.0778 22.0831 45.9071 22.1368 45.7415 22.1956C45.5547 22.2604 45.3704 22.3311 45.1862 22.4095L45.7186 19.5383C46.9915 19.0508 48.5787 18.9417 49.6418 18.9417C50.5004 18.9375 51.3614 18.9707 52.1639 19.1812C53.0309 19.4113 53.6186 19.8357 53.9396 20.4749C54.2597 21.1167 54.3132 21.9689 54.112 23.0632L53.1592 28.2312C53.0743 28.6931 53.0004 29.155 52.9443 29.6178ZM49.6062 27.7036L49.9824 25.6421C49.4695 25.9787 48.5354 26.1219 47.8297 26.3324C47.0748 26.5608 46.1959 27.0235 46.2018 28.0028C46.2018 28.0377 46.2035 28.0692 46.2077 28.1016C46.2918 28.8269 47.2208 28.7579 47.7635 28.6258C48.3757 28.4741 49.0355 28.1246 49.6062 27.7036Z" fill="#231F20"/>
<path d="M36.8514 4.5576C36.4209 4.35562 35.8434 4.13403 34.894 4.13403C32.141 4.13403 31.0634 6.58593 31.0642 8.39439C31.0668 10.7295 32.366 11.7676 34.0678 11.7676C34.8244 11.7676 35.3016 11.65 35.722 11.5434L36.4608 7.60181H34.2376L34.0559 8.46768H35.39L34.973 10.7406C34.7794 10.8139 34.4041 10.8352 34.2138 10.8352C32.9681 10.8352 32.034 10.0639 32.034 8.44723C32.0331 6.71462 32.9749 5.06553 34.9119 5.06553C35.626 5.06553 36.1916 5.25558 36.5771 5.46609" fill="#231F20"/>
<path d="M37.3116 11.6397H38.1727L38.6551 8.98585C38.7739 8.32195 39.2928 6.98904 40.3543 6.98904C40.4188 6.98904 40.5547 7.02058 40.7211 7.09387L40.9122 6.21691C40.7466 6.14277 40.6014 6.12231 40.5199 6.12231C39.7046 6.12231 39.2028 6.59872 38.9276 7.10495H38.9115L39.0567 6.25015H38.2517C38.2143 6.56548 38.16 6.85183 38.1226 7.07427" fill="#231F20"/>
<path d="M45.8876 6.25012H45.0282L44.5357 8.96536C44.4177 9.63096 43.8963 10.963 42.8365 10.963C42.3074 10.963 41.9856 10.5412 41.9856 9.98038C41.9856 9.86277 42.0026 9.65142 42.0306 9.4716L42.6046 6.25012H41.7453L41.2358 9.08979C41.1797 9.3983 41.1245 9.75795 41.1245 10.0733C41.1254 11.2161 41.775 11.7675 42.6802 11.7675C43.4946 11.7675 43.9973 11.2894 44.2724 10.7832H44.2911L44.1442 11.6397H44.9492C44.9841 11.3235 45.0401 11.0372 45.0766 10.813" fill="#231F20"/>
<path d="M45.9929 13.8598H46.8531L47.4093 10.8352H47.4271C47.6479 11.448 48.132 11.7676 48.9463 11.7676C50.5012 11.7676 51.296 10.1483 51.2935 8.17281C51.2926 7.0095 50.6795 6.12231 49.6282 6.12231C48.9777 6.12231 48.3111 6.39588 47.9723 7.07427H47.9553L48.1116 6.25015H47.3048C47.2412 6.83905 47.1486 7.43136 47.0603 8.03475L45.9929 13.8598ZM47.6632 9.54492C47.6632 8.21542 48.3298 6.92513 49.3361 6.92513C49.9288 6.92513 50.378 7.34784 50.3797 8.25718C50.3797 9.59861 49.8048 10.963 48.8274 10.963C48.0394 10.963 47.6649 10.2744 47.6632 9.54492Z" fill="#231F20"/>
<path d="M52.1537 9.36595C52.1537 10.963 52.9978 11.7676 54.2759 11.7676C55.9522 11.7676 56.8829 10.3068 56.8812 8.47791C56.8812 6.99842 56.0659 6.12231 54.8134 6.12231C53.1023 6.12231 52.1529 7.56942 52.1537 9.36595ZM53.0683 9.44009C53.0666 8.32195 53.6347 6.92513 54.776 6.92513C55.5547 6.92513 55.9666 7.67595 55.9683 8.47791C55.9683 9.69406 55.238 10.963 54.2674 10.963C53.4547 10.963 53.0692 10.2966 53.0683 9.44009Z" fill="#231F20"/>
<path d="M26.1134 11.2537C25.1751 14.8126 23.2058 17.585 20.3653 18.9443L11.6816 23.0998C10.3874 23.7194 9.98063 24.4898 9.67153 26.1491L8.30774 33.4298L10.9546 33.4264C12.3966 33.4247 12.8577 32.3799 13.2177 30.6481L13.8139 27.7914C14.1323 26.2591 14.421 25.8781 15.6855 25.2603L20.0656 23.1126C21.8701 22.2297 23.3995 20.826 24.4482 18.9605C25.6354 16.8452 26.2162 14.153 26.1134 11.2537Z" fill="#8FC7B8"/>
<path d="M7.59105 25.4793C8.0046 23.1637 8.87926 21.7567 10.7313 20.8891L19.1425 16.9372C22.9197 15.1637 24.9569 11.0039 24.9705 6.84585C24.9883 1.80058 21.6357 -0.647912 17.991 0.81283L13.3604 2.67157C11.364 3.47097 10.5606 4.73314 10.1097 7.2464L8.99135 13.5138L8.9973 13.5112C9.66051 10.9784 10.7755 9.59603 12.4925 8.81453L15.9419 7.24299C17.7481 6.42143 18.6721 6.87738 18.7222 8.39011C18.7748 10.0818 17.5163 11.5877 15.6515 12.4596L5.22522 17.3421C2.90609 18.4261 1.75885 20.0675 1.21707 23.1126L0.288058 28.3317C-0.0405767 30.1853 0.759355 30.9455 1.87688 30.943L6.61873 30.937" fill="#009475"/>
</svg>
