<svg width="37" height="48" viewBox="0 0 37 48" fill="none" xmlns="http://www.w3.org/2000/svg">
<path d="M36.8949 15.469C35.5582 20.5388 32.7529 24.4881 28.7066 26.4245L16.3364 32.3441C14.4928 33.2267 13.9134 34.3242 13.473 36.6879L11.5303 47.0594L15.3009 47.0546C17.3549 47.0521 18.0118 45.5637 18.5247 43.0968L19.3739 39.0274C19.8275 36.8445 20.2388 36.3018 22.04 35.4217L28.2795 32.3623C30.8501 31.1046 33.0287 29.105 34.5227 26.4475C36.2138 23.4343 37.0413 19.5991 36.8949 15.469Z" fill="#8FC7B8"/>
<path d="M10.5094 35.7338C11.0985 32.4353 12.3445 30.4309 14.9828 29.195L26.9647 23.5655C32.3453 21.0391 35.2474 15.1134 35.2667 9.19012C35.2921 2.00303 30.5163 -1.48489 25.3243 0.595962L18.7279 3.24377C15.884 4.38254 14.7396 6.18053 14.0973 9.76072L12.5041 18.6887L12.5126 18.6851C13.4574 15.077 15.0457 13.1078 17.4917 11.9945L22.4054 9.75586C24.9784 8.58553 26.2945 9.23504 26.3659 11.39C26.4409 13.7998 24.6481 15.945 21.9917 17.187L7.13921 24.1422C3.83557 25.6864 2.20129 28.0247 1.42951 32.3624L0.106121 39.7972C-0.362026 42.4377 0.777494 43.5206 2.36943 43.517L9.12429 43.5085" fill="#009475"/>
</svg>
